<svg xmlns="http://www.w3.org/2000/svg" viewBox="0 0 253.21 70.22"><defs><style>.cls-1{fill:#fff;}</style></defs><title>Asset 2</title><g id="Layer_2" data-name="Layer 2"><g id="Layer_1-2" data-name="Layer 1"><path class="cls-1" d="M62.06,0H8.16A8.16,8.16,0,0,0,0,8.16v53.9a8.16,8.16,0,0,0,8.16,8.16h53.9a8.16,8.16,0,0,0,8.16-8.16V8.16A8.16,8.16,0,0,0,62.06,0ZM14.17,6.05A5,5,0,0,1,17.92,4.6a5.17,5.17,0,0,1,3.87,1.45,5,5,0,0,1,1.42,3.61,5,5,0,0,1-1.42,3.61,5.17,5.17,0,0,1-3.87,1.45,5,5,0,0,1-3.75-1.45,5,5,0,0,1-1.43-3.61A5,5,0,0,1,14.17,6.05Zm9.22,47.3a18.57,18.57,0,0,1-2,.35,22.5,22.5,0,0,1-2.7.17,12.6,12.6,0,0,1-2.36-.2,4.17,4.17,0,0,1-1.71-.73,3.07,3.07,0,0,1-1-1.46A7.13,7.13,0,0,1,13.21,49V18.33c.43-.08,1.1-.19,2-.32a18.18,18.18,0,0,1,2.68-.21,11.82,11.82,0,0,1,2.36.21,4.22,4.22,0,0,1,1.71.72A3.12,3.12,0,0,1,23,20.19a7.13,7.13,0,0,1,.35,2.44Zm31.5-3.09A13.71,13.71,0,0,1,47.18,54,9.93,9.93,0,0,1,48,55.88a8,8,0,0,1,.44,2.76,7,7,0,0,1-1.86,5,6.92,6.92,0,0,1-5.3,2,5.91,5.91,0,0,1-3.92-1.25,4.28,4.28,0,0,1-1.49-3.46,4.56,4.56,0,0,1,.09-1c.06-.25.13-.49.21-.73Q40,59,40,56.31a5.88,5.88,0,0,0-.09-.9,3.69,3.69,0,0,0-.32-1,21.69,21.69,0,0,1-4-.67,11.33,11.33,0,0,1-3.17-1.33,7,7,0,0,1-2.1-2,4.6,4.6,0,0,1-.75-2.59,4.43,4.43,0,0,1,1-2.88,7.64,7.64,0,0,1,2.16-1.83,15.78,15.78,0,0,0,4,2.21,13.91,13.91,0,0,0,5.15.93,6.9,6.9,0,0,0,4-.87,2.51,2.51,0,0,0,1.17-2A2,2,0,0,0,46,41.57a12.11,12.11,0,0,0-2.62-1.2L41,39.56q-2.57-.87-4.66-1.77a14.28,14.28,0,0,1-3.6-2.19,9,9,0,0,1-2.36-3.05,10.07,10.07,0,0,1-.84-4.33,9.5,9.5,0,0,1,3.81-7.91q3.81-3,10.67-3a28.18,28.18,0,0,1,4.65.35,14,14,0,0,1,3.7,1.07,6.42,6.42,0,0,1,2.41,1.87,4.19,4.19,0,0,1,.87,2.64,4.7,4.7,0,0,1-.69,2.59,7.21,7.21,0,0,1-1.69,1.83,13.37,13.37,0,0,0-3.43-1.42,17.15,17.15,0,0,0-4.71-.61,7.81,7.81,0,0,0-3.84.72A2.13,2.13,0,0,0,40,28.22a1.7,1.7,0,0,0,.76,1.42,7.74,7.74,0,0,0,2.27,1l3.08,1a22.31,22.31,0,0,1,8.41,4.45,9.51,9.51,0,0,1,2.94,7.36A9.66,9.66,0,0,1,54.89,50.26Z"/><path class="cls-1" d="M74.85,14.66a16.36,16.36,0,0,1,1.87-.37,16,16,0,0,1,2.61-.21,13.26,13.26,0,0,1,2.3.18,3.86,3.86,0,0,1,1.72.7,3.11,3.11,0,0,1,1,1.42,6.49,6.49,0,0,1,.35,2.36v5.7a14.28,14.28,0,0,1,2.77-.82,17,17,0,0,1,2.88-.23,14.25,14.25,0,0,1,5.29,1,13.1,13.1,0,0,1,4.42,2.88,13.27,13.27,0,0,1,3,4.68,17.38,17.38,0,0,1,1.11,6.46A17.74,17.74,0,0,1,103.1,45a12.72,12.72,0,0,1-3.17,4.68,13.49,13.49,0,0,1-5,2.82,23.18,23.18,0,0,1-13,.06,16.87,16.87,0,0,1-4.54-2.24,5.48,5.48,0,0,1-2.56-4.65Zm13.62,31a5,5,0,0,0,4.15-1.83,8.5,8.5,0,0,0,1.49-5.44,8.4,8.4,0,0,0-1.51-5.47,5.06,5.06,0,0,0-4.08-1.8,7.38,7.38,0,0,0-2,.23,11,11,0,0,0-1.84.7V44.74a6.18,6.18,0,0,0,1.55.67A8.3,8.3,0,0,0,88.47,45.67Z"/><path class="cls-1" d="M109.06,24.67a13.27,13.27,0,0,1,1.83-.35,18.18,18.18,0,0,1,2.59-.17,13.4,13.4,0,0,1,2.3.17,3.94,3.94,0,0,1,1.71.7,3.31,3.31,0,0,1,1.08,1.42A6.26,6.26,0,0,1,119,28.8V41.31a4.3,4.3,0,0,0,1.16,3.4,5,5,0,0,0,3.37,1,8.24,8.24,0,0,0,2.19-.24A7.49,7.49,0,0,0,127,45V24.67a13.49,13.49,0,0,1,1.84-.35,18.08,18.08,0,0,1,2.59-.17,13.28,13.28,0,0,1,2.29.17,4,4,0,0,1,1.72.7,3.47,3.47,0,0,1,1.08,1.42,6.28,6.28,0,0,1,.37,2.36V46.48a4.76,4.76,0,0,1-2.44,4.37,16,16,0,0,1-4.86,1.94,26.29,26.29,0,0,1-6.13.67,22.87,22.87,0,0,1-5.79-.69,13,13,0,0,1-4.57-2.16,9.66,9.66,0,0,1-3-3.75,13.44,13.44,0,0,1-1-5.55Z"/><path class="cls-1" d="M153,52.47c-.43.08-1.06.19-1.89.32a15.36,15.36,0,0,1-2.54.21,13.22,13.22,0,0,1-2.29-.18,4,4,0,0,1-1.72-.69,3.4,3.4,0,0,1-1.07-1.43,6,6,0,0,1-.38-2.36V14.61c.42-.08,1-.19,1.89-.32a15.16,15.16,0,0,1,2.53-.21,13.34,13.34,0,0,1,2.3.18,3.82,3.82,0,0,1,1.71.7,3.33,3.33,0,0,1,1.08,1.42,6.23,6.23,0,0,1,.38,2.36Z"/><path class="cls-1" d="M154.11,47.82a5.74,5.74,0,0,1,1.51-4.07,6,6,0,0,1,8.26,0,6.21,6.21,0,0,1,0,8.14,6,6,0,0,1-8.26,0A5.73,5.73,0,0,1,154.11,47.82Z"/><path class="cls-1" d="M186.78,34.62a3.25,3.25,0,0,0-1-2.65,4.21,4.21,0,0,0-2.76-.84,9,9,0,0,0-2.3.29,5.8,5.8,0,0,0-1.95.87V52.47a11.9,11.9,0,0,1-1.83.35,18.16,18.16,0,0,1-2.59.18,13.34,13.34,0,0,1-2.3-.18,3.93,3.93,0,0,1-1.71-.69,3.34,3.34,0,0,1-1.08-1.43,6.23,6.23,0,0,1-.38-2.36V30.89a4.55,4.55,0,0,1,.67-2.56,7.18,7.18,0,0,1,1.84-1.8,16.49,16.49,0,0,1,5-2.27,23.87,23.87,0,0,1,6.66-.87q6.57,0,10.12,2.88a9.73,9.73,0,0,1,3.55,8v18.2a12.16,12.16,0,0,1-1.83.35,18.26,18.26,0,0,1-2.59.18,13.34,13.34,0,0,1-2.3-.18,3.88,3.88,0,0,1-1.71-.69,3.34,3.34,0,0,1-1.08-1.43,6.23,6.23,0,0,1-.38-2.36Z"/><path class="cls-1" d="M217.73,53.46a20.4,20.4,0,0,1-6.37-1,14.39,14.39,0,0,1-5.12-2.88,13.18,13.18,0,0,1-3.43-4.82A17,17,0,0,1,201.56,38a15.8,15.8,0,0,1,1.25-6.6,13,13,0,0,1,3.28-4.54,13.31,13.31,0,0,1,4.66-2.62,17.34,17.34,0,0,1,5.35-.84,16.18,16.18,0,0,1,5.61.93,13.36,13.36,0,0,1,4.36,2.56,11.24,11.24,0,0,1,2.85,3.9,11.9,11.9,0,0,1,1,4.94,4,4,0,0,1-1.1,3,5.51,5.51,0,0,1-3.09,1.33l-14.36,2.16A4.82,4.82,0,0,0,214,45.12a10.27,10.27,0,0,0,4.54,1,16.54,16.54,0,0,0,4.51-.61A14.61,14.61,0,0,0,226.51,44a4.91,4.91,0,0,1,1.57,1.63,4.27,4.27,0,0,1-1.8,6.11,12.87,12.87,0,0,1-4.19,1.33A28.57,28.57,0,0,1,217.73,53.46ZM216.1,30.6a5.8,5.8,0,0,0-2.42.47A4.8,4.8,0,0,0,212,32.26a4.91,4.91,0,0,0-1,1.63,6.49,6.49,0,0,0-.38,1.83l9.95-1.63a4.45,4.45,0,0,0-1.28-2.32A4.29,4.29,0,0,0,216.1,30.6Z"/><path class="cls-1" d="M244.6,42.82a2.39,2.39,0,0,0,1,2.15,4.83,4.83,0,0,0,2.71.64,12.55,12.55,0,0,0,1.8-.14,11.26,11.26,0,0,0,1.63-.38,6.85,6.85,0,0,1,.9,1.42A4.39,4.39,0,0,1,253,48.4,4.48,4.48,0,0,1,251.32,52c-1.11.93-3,1.4-5.85,1.4q-5.11,0-7.88-2.33t-2.76-7.56V18.62c.43-.12,1-.24,1.83-.38a15.72,15.72,0,0,1,2.53-.2,7.46,7.46,0,0,1,4,.9c.95.6,1.42,1.87,1.42,3.81v3.72h7.62a10,10,0,0,1,.67,1.6,6.8,6.8,0,0,1,.32,2.13,4,4,0,0,1-.9,2.93,3.23,3.23,0,0,1-2.41.91h-5.3Z"/></g></g></svg>